<svg xmlns="http://www.w3.org/2000/svg" xmlns:xlink="http://www.w3.org/1999/xlink" version="1.1" x="0px" y="0px" viewBox="0 0 64 80" enable-background="new 0 0 64 64" xml:space="preserve"><g display="none"><rect x="-411" y="-97.495" display="inline" fill="#000000" width="786.5" height="405.5"/></g><g display="none"><g display="inline"><g><path d="M0,43.333l0-38.75c0-0.688,0.588-1.25,1.306-1.25h61.388c0.718,0,1.306,0.562,1.306,1.25v38.75H0z"/></g><g><path fill="#000000" d="M64,43.333v5.333C64,49.4,63.412,50,62.694,50H1.306C0.588,50,0,49.4,0,48.667l0-5.333H64z"/></g><g><polygon fill="#000000" points="41.333,59.333 22.667,59.333 24,50 40,50    "/></g><g><rect x="18" y="59.333" fill="#000000" width="28" height="1.333"/></g><g opacity="0.2"><path fill="#000000" d="M28.328,3.333H1.306C0.588,3.333,0,3.896,0,4.583v22.432L28.328,3.333z"/></g><g><defs><polygon id="b" points="41.333,59.333 22.667,59.333 24,50 40,50     "/></defs><clipPath id="a"><use xlink:href="#b" overflow="visible"/></clipPath><g clip-path="url(#a)"><rect x="21.971" y="50" fill="#000000" width="20.058" height="3.15"/></g></g></g><g display="inline"><g><path fill="#000000" d="M16.012,23.82l10.577-5.448v1.573l-8.914,4.468v0.045l8.914,4.468v1.573L16.012,25.05V23.82z"/></g><g><path fill="#000000" d="M28.066,31.411l6.36-16.526h1.55l-6.382,16.526H28.066z"/></g><g><path fill="#000000" d="M47.988,25.073l-10.577,5.425v-1.573l8.98-4.468v-0.045l-8.98-4.468v-1.573l10.577,5.425V25.073z"/></g></g></g><g display="none"><polygon display="inline" fill="#000000" points="22.625,59.45 40.875,59.45 39.889,49.958 24.112,49.958  "/><rect x="1.5" y="4.286" display="inline" fill="#000000" width="61" height="45.125"/><rect x="4" y="7.26" display="inline" fill="#000000" width="56" height="32.707"/><path display="inline" d="M64,43.967H0V5.47c0-1.219,1.017-2.21,2.266-2.21h59.47C62.984,3.26,64,4.251,64,5.47V43.967z M2,41.967   h60V5.47c0-0.1-0.108-0.21-0.265-0.21H2.266C2.109,5.26,2,5.371,2,5.47V41.967z"/><path display="inline" d="M61.735,50.418H2.266C1.017,50.418,0,49.391,0,48.127v-6.16h64v6.16   C64,49.391,62.984,50.418,61.735,50.418z M2,43.967v4.16c0,0.158,0.122,0.291,0.266,0.291h59.47c0.144,0,0.265-0.133,0.265-0.291   v-4.16H2z"/><path display="inline" d="M42.195,59.45h-20.39l1.577-11.031h17.234L42.195,59.45z M24.112,57.45h15.776l-1.006-7.031H25.117   L24.112,57.45z"/><rect x="17.437" y="57.45" display="inline" width="29.125" height="3.29"/><g display="inline"><path fill="#000000" d="M16.012,23.82l10.577-5.448v1.573l-8.914,4.468v0.045l8.914,4.468v1.573L16.012,25.05V23.82z"/><path fill="#000000" d="M28.066,31.411l6.36-16.526h1.55l-6.382,16.526H28.066z"/><path fill="#000000" d="M47.988,25.073l-10.577,5.425v-1.573l8.98-4.468v-0.045l-8.98-4.468v-1.573l10.577,5.425V25.073z"/></g></g><g display="none"><polygon display="inline" fill="#000000" points="22.625,59.45 40.875,59.45 39.889,49.958 24.112,49.958  "/><rect x="1.5" y="4.286" display="inline" fill="#000000" width="61" height="45.125"/><rect x="4" y="7.26" display="inline" width="56" height="32.707"/><path display="inline" d="M64,43.967H0V5.47c0-1.219,1.017-2.21,2.266-2.21h59.47C62.984,3.26,64,4.251,64,5.47V43.967z M2,41.967   h60V5.47c0-0.1-0.108-0.21-0.265-0.21H2.266C2.109,5.26,2,5.371,2,5.47V41.967z"/><path display="inline" d="M61.735,50.418H2.266C1.017,50.418,0,49.391,0,48.127v-6.16h64v6.16   C64,49.391,62.984,50.418,61.735,50.418z M2,43.967v4.16c0,0.158,0.122,0.291,0.266,0.291h59.47c0.144,0,0.265-0.133,0.265-0.291   v-4.16H2z"/><path display="inline" d="M42.195,59.45h-20.39l1.577-11.031h17.234L42.195,59.45z M24.112,57.45h15.776l-1.006-7.031H25.117   L24.112,57.45z"/><rect x="17.437" y="57.45" display="inline" width="29.125" height="3.29"/><g display="inline"><path fill="#000000" d="M16.012,23.82l10.577-5.448v1.573l-8.914,4.468v0.045l8.914,4.468v1.573L16.012,25.05V23.82z"/><path fill="#000000" d="M28.066,31.411l6.36-16.526h1.55l-6.382,16.526H28.066z"/><path fill="#000000" d="M47.988,25.073l-10.577,5.425v-1.573l8.98-4.468v-0.045l-8.98-4.468v-1.573l10.577,5.425V25.073z"/></g></g><g><g><path d="M61.735,3.26H2.266C1.017,3.26,0,4.251,0,5.47v36.497v2v4.16c0,1.264,1.017,2.291,2.266,2.291h20.831l-1.005,7.031h-4.654    v3.29h29.125v-3.29h-4.653l-1.006-7.031h20.832c1.249,0,2.265-1.027,2.265-2.291v-4.16v-2V5.47C64,4.251,62.984,3.26,61.735,3.26z     M24.112,57.45l1.005-7.031h13.766l1.006,7.031H24.112z M62,48.127c0,0.158-0.121,0.291-0.265,0.291H40.617H23.383H2.266    C2.122,48.418,2,48.286,2,48.127v-4.16h60V48.127z M62,41.967H2V5.47c0-0.1,0.109-0.21,0.266-0.21h59.47    C61.892,5.26,62,5.371,62,5.47V41.967z"/><polygon points="15.887,23.743 15.887,25.126 26.531,30.61 26.714,30.703 26.714,28.848 17.909,24.435 26.645,20.056     26.714,20.022 26.714,18.166 15.954,23.708   "/><polygon points="27.885,31.535 29.681,31.535 36.093,14.929 36.159,14.759 34.341,14.759   "/><polygon points="37.286,18.166 37.286,20.022 46.156,24.435 37.355,28.813 37.286,28.848 37.286,30.703 48.113,25.15     48.113,23.72 37.468,18.26   "/></g></g><text x="0" y="79" fill="#000000" font-size="5px" font-weight="bold" font-family="'Helvetica Neue', Helvetica, Arial-Unicode, Arial, Sans-serif">Created by epicflaticon.com</text><text x="0" y="84" fill="#000000" font-size="5px" font-weight="bold" font-family="'Helvetica Neue', Helvetica, Arial-Unicode, Arial, Sans-serif">from the Noun Project</text></svg>